<svg xmlns="http://www.w3.org/2000/svg" width="16" height="16" fill="none">
  <g fill="#F4F4FD" clip-path="url(#a)">
    <path d="M15.984 4.704c-.037-.85-.175-1.435-.372-1.941a3.905 3.905 0 0 0-.925-1.42 3.938 3.938 0 0 0-1.416-.921c-.51-.197-1.09-.335-1.94-.372C10.473.01 10.2 0 8.03 0 5.857 0 5.585.01 4.732.047c-.85.037-1.434.175-1.94.372a3.904 3.904 0 0 0-1.42.925A3.94 3.94 0 0 0 .45 2.76C.253 3.27.116 3.85.078 4.7c-.04.857-.05 1.13-.05 3.301 0 2.173.01 2.445.047 3.298.037.85.175 1.435.372 1.941.203.538.519 1.019.925 1.419.4.406.885.722 1.416.922.51.197 1.09.335 1.941.372.853.038 1.125.047 3.298.047 2.172 0 2.444-.01 3.297-.047.85-.037 1.435-.175 1.941-.372a4.092 4.092 0 0 0 2.341-2.341c.197-.51.335-1.09.372-1.941.038-.853.047-1.125.047-3.298 0-2.172-.003-2.444-.04-3.297Zm-1.44 6.532c-.035.782-.166 1.204-.276 1.485a2.654 2.654 0 0 1-1.519 1.52c-.281.109-.706.24-1.484.274-.844.038-1.097.047-3.232.047-2.135 0-2.391-.01-3.232-.047-.782-.034-1.204-.165-1.485-.275a2.463 2.463 0 0 1-.919-.597 2.488 2.488 0 0 1-.597-.919c-.11-.281-.24-.706-.275-1.484-.037-.844-.047-1.098-.047-3.232 0-2.135.01-2.391.047-3.232.035-.782.166-1.204.275-1.485.128-.347.332-.662.6-.919a2.48 2.48 0 0 1 .92-.597c.28-.11.706-.24 1.484-.275.844-.037 1.097-.047 3.232-.047 2.138 0 2.39.01 3.232.047.781.035 1.203.166 1.484.275.347.128.663.331.92.597.265.26.468.572.596.92.11.28.241.705.275 1.484.038.844.047 1.097.047 3.232 0 2.135-.009 2.385-.046 3.228Z"/>
    <path d="M8.03 3.891a4.111 4.111 0 0 0 0 8.22 4.111 4.111 0 0 0 0-8.22Zm0 6.777a2.667 2.667 0 1 1 0-5.334 2.667 2.667 0 0 1 0 5.334Zm5.232-6.939a.96.96 0 1 1-1.92 0 .96.96 0 0 1 1.92 0Z"/>
  </g>
  <defs>
    <clipPath id="a">
      <path fill="#fff" d="M0 0h16v16H0z"/>
    </clipPath>
  </defs>
</svg>
<svg xmlns="http://www.w3.org/2000/svg" width="16" height="14" fill="none">
  <path fill="#F4F4FD" d="M16 2.039a6.839 6.839 0 0 1-1.89.518A3.262 3.262 0 0 0 15.553.744a6.555 6.555 0 0 1-2.08.794A3.28 3.28 0 0 0 7.799 3.78c0 .26.022.51.076.748a9.284 9.284 0 0 1-6.761-3.431 3.285 3.285 0 0 0 1.008 4.384A3.24 3.24 0 0 1 .64 5.078v.036a3.295 3.295 0 0 0 2.628 3.223 3.274 3.274 0 0 1-.86.108 2.9 2.9 0 0 1-.621-.056 3.311 3.311 0 0 0 3.065 2.285 6.59 6.59 0 0 1-4.067 1.399c-.269 0-.527-.012-.785-.045A9.234 9.234 0 0 0 5.032 13.5c6.036 0 9.336-5 9.336-9.334 0-.145-.005-.285-.012-.424A6.544 6.544 0 0 0 16 2.039Z"/>
</svg>
<svg xmlns="http://www.w3.org/2000/svg" width="9" height="16" fill="none">
  <path fill="#F4F4FD" d="M6.665 2.657h1.46V.113A18.861 18.861 0 0 0 5.997 0C3.891 0 2.45 1.325 2.45 3.76V6H.125v2.844h2.324V16h2.849V8.845h2.23L7.882 6H5.297V4.04c.001-.822.222-1.384 1.368-1.384Z"/>
</svg>
